<?xml version="1.0" encoding="utf-8"?>
<!-- Generator: Adobe Illustrator 25.0.0, SVG Export Plug-In . SVG Version: 6.00 Build 0)  -->
<svg version="1.1" xmlns="http://www.w3.org/2000/svg" xmlns:xlink="http://www.w3.org/1999/xlink" x="0px" y="0px"
	 viewBox="0 0 240 64" style="enable-background:new 0 0 240 64;" xml:space="preserve">
<style type="text/css">
	.st0{display:none;}
	.st1{display:inline;}
	.st2{fill:#E63712;}
	.st3{stroke:#000000;stroke-width:0.8416;stroke-miterlimit:10;}
	.st4{font-family:'KonkhmerSleokchher-Regular';}
	.st5{font-size:23.5648px;}
	.st6{fill:#FFFFFF;stroke:#FFFFFF;stroke-miterlimit:10;}
	.st7{font-size:23.5784px;}
	.st8{stroke:#000000;stroke-miterlimit:10;}
	.st9{font-size:32.5451px;}
	.st10{display:none;fill:#FFFFFF;stroke:#FFFFFF;stroke-miterlimit:10;}
</style>
<g id="Layer_1" class="st0">
	<g id="Page-1" class="st1">
		<polygon class="st2" points="204.1,60.8 204.1,60 204.4,59.1 205.4,56 208,50.2 211.9,41.3 215.4,33.7 215.7,32.5 215.7,30.6 
			214.1,26.1 212,21.8 210.3,19.9 207.9,16.8 206,14.4 206.1,11.6 206.5,10.5 207.3,9.5 211.6,6.5 213.3,5.7 214.6,5.9 215.3,6.3 
			215.7,7.7 218.1,15.6 220.2,20.2 220.5,20.9 221.8,20.9 223.4,17.3 224.1,3.1 225.5,1.5 226.2,1.1 230.1,1.3 231.2,1.8 232.7,3 
			233.7,4.2 234.5,5.1 234.5,8.4 234.5,9.5 232.3,16.3 230.3,22.5 227,30.6 226.9,31.7 229.8,34.8 233.7,39.3 237.8,45.1 
			237.7,46.6 236.2,49.7 235.4,51.1 231.4,55 229.6,55 228.4,54.1 227.3,50.9 225.9,47.4 225.3,45.9 224.2,43.9 223,43.1 
			221.6,42.7 220.6,42.8 219.2,44.5 215.6,53.5 213.4,59.9 213.3,60.7 212.4,61.5 210.4,63 209.8,63.4 207,63.4 		"/>
		<text transform="matrix(1 0 0 1 2.5648 40.1815)" class="st3 st4 st5">TRONIX REPAIRS</text>
		<text transform="matrix(1 0 0 1 213.6122 39.6692)" class="st6 st4 st7">T</text>
	</g>
</g>
<g id="Layer_2">
	<g id="Page-1_1_">
		<polygon class="st2" points="203.4,60.7 203.4,60 203.7,59.1 204.7,55.9 207.2,50.2 211.2,41.3 214.7,33.7 215,32.5 215,30.5 
			213.4,26.1 211.3,21.8 209.6,19.8 207.2,16.7 205.3,14.3 205.4,11.5 205.8,10.5 206.6,9.5 210.9,6.4 212.6,5.6 213.9,5.9 
			214.6,6.3 215,7.6 217.4,15.5 219.5,20.2 219.8,20.8 221.1,20.9 222.7,17.3 223.4,3 224.8,1.4 225.5,1 229.4,1.3 230.5,1.7 
			232,2.9 233,4.2 233.7,5 233.7,8.4 233.7,9.4 231.6,16.3 229.6,22.5 226.3,30.6 226.2,31.6 229.1,34.7 233,39.2 237.1,45.1 
			237,46.5 235.5,49.7 234.7,51 230.7,54.9 228.9,55 227.7,54 226.6,50.9 225.2,47.3 224.6,45.8 223.5,43.9 222.3,43.1 220.9,42.7 
			219.9,42.8 218.5,44.5 214.9,53.5 212.7,59.9 212.6,60.6 211.7,61.5 209.7,63 209.1,63.4 206.3,63.4 		"/>
		<text transform="matrix(1 0 0 1 0.7386 42.2391)" class="st8 st4 st9">Tronix Repairs</text>
		<text transform="matrix(1 0 0 1 207.2392 40.468)" class="st10 st4 st7">T</text>
	</g>
</g>
</svg>
