<svg id="Layer_2" data-name="Layer 2" xmlns="http://www.w3.org/2000/svg" viewBox="0 0 240 64"><defs><style>.cls-1{fill:#e63712;}.cls-2{font-size:32.55px;stroke:#000;stroke-miterlimit:10;stroke-width:1.5px;font-family:KonkhmerSleokchher-Regular, Konkhmer Sleokchher;letter-spacing:0.01em;}</style></defs><g id="Page-1"><polygon class="cls-1" points="203.44 60.74 203.4 59.99 203.72 59.09 204.71 55.95 207.25 50.17 211.24 41.29 214.72 33.68 215 32.45 214.95 30.53 213.36 26.06 211.34 21.79 209.6 19.82 207.15 16.71 205.32 14.32 205.37 11.5 205.79 10.46 206.59 9.48 210.87 6.42 212.56 5.63 213.87 5.86 214.58 6.28 214.95 7.6 217.44 15.54 219.51 20.19 219.84 20.85 221.11 20.9 222.71 17.28 223.36 3.04 224.77 1.4 225.53 1.02 229.38 1.26 230.51 1.73 232.01 2.95 233.04 4.17 233.75 5.01 233.75 8.35 233.75 9.43 231.59 16.29 229.61 22.49 226.32 30.57 226.23 31.61 229.14 34.71 233 39.22 237.08 45.09 237.04 46.5 235.49 49.65 234.73 51.01 230.69 54.91 228.86 54.96 227.73 54.02 226.61 50.87 225.24 47.35 224.59 45.84 223.5 43.87 222.33 43.07 220.92 42.65 219.93 42.79 218.52 44.48 214.91 53.46 212.65 59.89 212.56 60.65 211.71 61.49 209.74 62.99 209.13 63.37 206.31 63.37 203.44 60.74"/><text class="cls-2" transform="translate(0.74 42.24)">Tronix Repairs</text></g></svg>