<svg id="Layer_2" data-name="Layer 2" xmlns="http://www.w3.org/2000/svg" viewBox="0 0 240 64"><defs><style>.cls-1{fill:#e63712;}.cls-2{font-size:47.73px;stroke:#000;stroke-width:0.89px;}.cls-2,.cls-4{stroke-miterlimit:10;font-family:KonkhmerSleokchher-Regular, Konkhmer Sleokchher;}.cls-3{font-size:25px;}.cls-4{font-size:23.58px;fill:#fff;stroke:#fff;}</style></defs><g id="Page-1"><polygon class="cls-1" points="197.77 61.59 197.73 60.84 198.05 59.95 199.04 56.8 201.58 51.02 205.57 42.14 209.05 34.53 209.33 33.31 209.28 31.38 207.69 26.92 205.67 22.64 203.93 20.67 201.48 17.57 199.65 15.17 199.7 12.35 200.12 11.32 200.92 10.33 205.2 7.28 206.89 6.48 208.2 6.71 208.91 7.14 209.28 8.45 211.77 16.39 213.84 21.04 214.17 21.7 215.44 21.75 217.04 18.13 217.69 3.89 219.1 2.25 219.86 1.87 223.71 2.11 224.84 2.58 226.34 3.8 227.37 5.02 228.08 5.87 228.08 9.2 228.08 10.28 225.92 17.14 223.94 23.34 220.65 31.43 220.56 32.46 223.47 35.56 227.33 40.07 231.41 45.95 231.37 47.35 229.82 50.5 229.06 51.87 225.02 55.77 223.19 55.81 222.06 54.87 220.94 51.73 219.57 48.2 218.92 46.7 217.84 44.72 216.66 43.92 215.25 43.5 214.26 43.64 212.85 45.34 209.24 54.31 206.98 60.75 206.89 61.5 206.04 62.34 204.07 63.85 203.46 64.22 200.64 64.22 197.77 61.59"/><text class="cls-2" transform="translate(8.29 48.05)">TRONIX<tspan class="cls-3" x="183.14" y="0"> </tspan></text><text class="cls-4" transform="translate(207.24 40.47)">T</text></g></svg>