<?xml version="1.0" encoding="utf-8"?>
<!-- Generator: Adobe Illustrator 25.0.0, SVG Export Plug-In . SVG Version: 6.00 Build 0)  -->
<svg version="1.1" id="Layer_1" xmlns="http://www.w3.org/2000/svg" xmlns:xlink="http://www.w3.org/1999/xlink" x="0px" y="0px"
	 viewBox="0 0 54 54" style="enable-background:new 0 0 54 54;" xml:space="preserve">
<style type="text/css">
	.st0{display:none;}
	.st1{display:inline;}
	.st2{fill:none;stroke:#E5261F;stroke-width:4;}
	.st3{fill-rule:evenodd;clip-rule:evenodd;fill:#E5261F;}
	.st4{fill:#E5261F;}
	.st5{fill:none;stroke:#E63712;stroke-width:2.9212;stroke-miterlimit:10;}
	.st6{fill:#E63712;}
</style>
<g id="Page-1" class="st0">
	<g id="logo-mobile" class="st1">
		<rect id="Rectangle-6" x="2" y="2" class="st2" width="50" height="50"/>
		<path id="_x2E_" class="st3" d="M34.4,41.9c-0.5-0.5-0.7-1.2-0.7-1.9s0.2-1.4,0.7-1.9c0.5-0.5,1.1-0.8,1.7-0.8
			c0.7,0,1.3,0.3,1.7,0.8c0.5,0.5,0.7,1.2,0.7,1.9s-0.2,1.4-0.7,1.9s-1.1,0.8-1.7,0.8S34.9,42.4,34.4,41.9z"/>
		<path id="S" class="st4" d="M20.7,42.6c1.6,0,3.1-0.3,4.5-0.9c1.3-0.6,2.4-1.5,3.2-2.6c0.8-1.2,1.2-2.7,1.2-4.5
			c0-1.5-0.3-2.8-1-3.9c-0.7-1.1-1.6-2-2.7-2.9c-1.1-0.9-2.4-1.8-3.9-2.7c-1.3-0.8-2.4-1.5-3.5-2.2c-1.1-0.7-1.9-1.5-2.6-2.3
			c-0.6-0.9-1-1.9-1-3.2c0-1.5,0.5-2.6,1.4-3.5s2.2-1.3,3.7-1.3c1.6,0,2.8,0.4,3.8,1.2s1.7,1.8,2.2,3s0.8,2.5,0.9,3.9l0,0h1
			c0-1.8,0-3.2,0-4.3c0-1.1,0-1.9,0.1-2.6s0.1-1.2,0.1-1.7l0,0h-1c-0.2,1.2-0.5,1.8-0.9,1.8c-0.2,0-0.4,0-0.6-0.1
			c-0.2-0.1-0.5-0.2-0.8-0.4c-0.6-0.4-1.2-0.7-1.9-1.1c-0.7-0.3-1.8-0.5-3.2-0.5c-1.4,0-2.7,0.3-3.9,0.8c-1.2,0.5-2.2,1.3-2.9,2.4
			c-0.7,1.1-1.1,2.4-1.1,4.1c0,1.6,0.3,2.9,1,4c0.7,1.1,1.6,2.1,2.8,2.9c1.1,0.8,2.4,1.7,3.7,2.5c2,1.2,3.5,2.3,4.7,3.4
			c1.2,1.1,1.8,2.5,1.8,4.2c0,2-0.6,3.4-1.7,4.3c-1.1,0.9-2.4,1.3-3.8,1.3c-1.8,0-3.2-0.4-4.3-1.3c-1.1-0.9-1.9-2.1-2.4-3.5
			c-0.5-1.5-0.8-3-0.9-4.7l0,0h-1c0,2,0,3.6,0,4.9c0,1.3,0,2.3,0,3.1s0,1.5-0.1,2.1l0,0h1c0.2-1.2,0.5-1.8,0.9-1.8
			c0.3,0,0.8,0.2,1.4,0.6c0.6,0.4,1.4,0.7,2.2,1S19.2,42.6,20.7,42.6z"/>
	</g>
</g>
<rect x="1.5" y="1.5" class="st5" width="51.1" height="51.1"/>
<polygon class="st6" points="15.2,49.4 15.1,48.8 15.4,48.1 16.2,45.7 18.1,41.2 21.2,34.3 23.9,28.4 24.1,27.5 24.1,26 22.9,22.5 
	21.3,19.2 19.9,17.7 18.1,15.3 16.6,13.5 16.7,11.3 17,10.5 17.6,9.7 20.9,7.4 22.2,6.7 23.3,6.9 23.8,7.2 24.1,8.3 26,14.4 
	27.6,18 27.9,18.5 28.9,18.5 30.1,15.7 30.6,4.7 31.7,3.5 32.3,3.2 35.3,3.4 36.1,3.7 37.3,4.7 38.1,5.6 38.6,6.3 38.6,8.8 
	38.6,9.7 37,15 35.4,19.8 32.9,26 32.8,26.8 35.1,29.2 38,32.7 41.2,37.3 41.2,38.4 40,40.8 39.4,41.8 36.3,44.9 34.9,44.9 34,44.2 
	33.1,41.7 32.1,39 31.5,37.9 30.7,36.3 29.8,35.7 28.7,35.4 27.9,35.5 26.9,36.8 24.1,43.7 22.3,48.7 22.2,49.3 21.6,50 20.1,51.1 
	19.6,51.4 17.4,51.4 "/>
</svg>
