<svg id="Layer_1" data-name="Layer 1" xmlns="http://www.w3.org/2000/svg" xmlns:xlink="http://www.w3.org/1999/xlink" viewBox="0 0 100 100"><defs><style>.cls-1{fill:#111;}</style></defs><path class="cls-1" d="M39.19,76.76H48.7a.38.38,0,0,0,0-.76H39.19a.38.38,0,0,0,0,.76Zm11,0h1.56a.38.38,0,1,0,0-.76H50.21a.38.38,0,1,0,0,.76Zm2.9,0h1.06a.38.38,0,0,0,0-.76H53.11a.38.38,0,0,0,0,.76Zm-2.18,1.56a.36.36,0,0,0,.37.37h9.51a.38.38,0,1,0,0-.75H51.3C51.09,77.89,50.93,78.1,50.93,78.32Zm-3.12,0a.37.37,0,0,0,.38.37h1.56a.38.38,0,1,0,0-.75H48.19C48,77.89,47.81,78.1,47.81,78.32Zm-.92-.43H45.83a.38.38,0,0,0,0,.76h1.06a.38.38,0,1,0,0-.76ZM34.39,50,33,50.67a.39.39,0,0,0-.21.51.51.51,0,0,0,.38.25.27.27,0,0,0,.17,0l1.39-.63a.39.39,0,0,0,.21-.51A.46.46,0,0,0,34.39,50ZM26,53.83l-1.39.63a.38.38,0,0,0-.21.5.48.48,0,0,0,.38.26.2.2,0,0,0,.16,0l1.39-.63a.37.37,0,0,0,.21-.5C26.4,53.83,26.14,53.7,26,53.83Zm5.59-2.53-1.39.64a.38.38,0,0,0-.21.5.48.48,0,0,0,.38.25.27.27,0,0,0,.17,0L31.91,52a.39.39,0,0,0,.21-.51A.44.44,0,0,0,31.57,51.3Zm-8.41,3.75-1.39.63a.38.38,0,0,0-.21.5.48.48,0,0,0,.38.26.28.28,0,0,0,.17,0l1.38-.64a.37.37,0,0,0,.21-.5A.42.42,0,0,0,23.16,55.05Zm-5.77,3a.37.37,0,0,0-.5-.21l-.72.33a.36.36,0,0,0-.25.34.44.44,0,0,0,.25.38l.72.34a.25.25,0,0,0,.17,0,.43.43,0,0,0,.38-.25.4.4,0,0,0-.13-.47A.52.52,0,0,0,17.39,58.08ZM47.73,73a.22.22,0,0,0,.17,0,.43.43,0,0,0,.38-.26.37.37,0,0,0-.22-.5l-1.38-.63a.37.37,0,0,0-.51.21.37.37,0,0,0,.21.5Zm-8.42-3.74a.28.28,0,0,0,.17,0,.4.4,0,0,0,.38-.25.38.38,0,0,0-.21-.51l-1.39-.63a.37.37,0,0,0-.5.21.37.37,0,0,0,.21.51Zm-5.59-2.52a.25.25,0,0,0,.17,0,.4.4,0,0,0,.37-.26.36.36,0,0,0-.21-.5l-1.38-.63a.37.37,0,0,0-.51.21.37.37,0,0,0,.21.5Zm8.41,3.78a.27.27,0,0,0,.17,0,.4.4,0,0,0,.38-.25.37.37,0,0,0-.21-.5l-1.39-.63a.38.38,0,0,0-.29.71Zm2.78,1.26s.13,0,.17,0a.42.42,0,0,0,.38-.26.37.37,0,0,0-.21-.5l-1.39-.63a.37.37,0,0,0-.51.21.37.37,0,0,0,.21.5Zm-14-6.31a.22.22,0,0,0,.17,0,.42.42,0,0,0,.38-.26.37.37,0,0,0-.21-.5l-1.39-.63a.37.37,0,0,0-.51.21.37.37,0,0,0,.21.5Zm-4.21-1.85,1.39.63a.27.27,0,0,0,.17,0,.41.41,0,0,0,.38-.25.37.37,0,0,0-.21-.5L27,62.92a.37.37,0,0,0-.51.21A.34.34,0,0,0,26.69,63.63Zm-3-1.77a.38.38,0,0,0,.21.51l1.39.63a.27.27,0,0,0,.17,0,.41.41,0,0,0,.38-.25.37.37,0,0,0-.21-.5l-1.39-.64A.44.44,0,0,0,23.66,61.86ZM36.49,68a.28.28,0,0,0,.17,0A.4.4,0,0,0,37,67.8a.37.37,0,0,0-.21-.51l-1.39-.63a.37.37,0,0,0-.5.21.37.37,0,0,0,.21.51ZM20.89,60.6a.37.37,0,0,0,.21.51l1.38.63a.28.28,0,0,0,.17,0,.4.4,0,0,0,.38-.25.37.37,0,0,0-.21-.51l-1.39-.63A.4.4,0,0,0,20.89,60.6Z"/><path class="cls-1" d="M81.43,59.13,80,59.76a0,0,0,0,0,0,0,.45.45,0,0,0-.3.3,30.9,30.9,0,0,1-8,13.17H51.09v-.09a.38.38,0,0,0-.5-.21l-.55.25L49.5,73a.38.38,0,0,0-.51.21v.09H28.37a30.55,30.55,0,0,1-7.95-13.13.49.49,0,0,0-.29-.29l0-.05-1.39-.63a.39.39,0,0,0-.3.72l1.35.59a31.77,31.77,0,0,0,60.75,0l1.35-.59a.39.39,0,0,0,.21-.51C81.85,59.13,81.6,59.05,81.43,59.13ZM50,82.14A31.11,31.11,0,0,1,29.13,74H70.87A30.91,30.91,0,0,1,50,82.14Z"/><path class="cls-1" d="M63.34,68.05a.28.28,0,0,0,.17,0l1.38-.63a.39.39,0,0,0,.21-.51.38.38,0,0,0-.5-.21l-1.39.63a.39.39,0,0,0-.21.51A.32.32,0,0,0,63.34,68.05Zm2.82-1.26a.24.24,0,0,0,.16,0l1.39-.64a.37.37,0,0,0,.21-.5.41.41,0,0,0-.5-.21L66,66a.38.38,0,0,0-.21.5A.33.33,0,0,0,66.16,66.79Zm2.77-1.26a.22.22,0,0,0,.17,0l1.39-.63a.38.38,0,0,0,.21-.5.38.38,0,0,0-.5-.21l-1.39.63a.37.37,0,0,0-.21.5A.35.35,0,0,0,68.93,65.53Zm2.82-1.27a.27.27,0,0,0,.17,0l1.39-.63a.39.39,0,0,0-.3-.72l-1.38.64a.37.37,0,0,0-.21.5A.31.31,0,0,0,71.75,64.26ZM77,61.53a.51.51,0,0,0,.38.25.27.27,0,0,0,.17,0L79,61.11a.39.39,0,0,0-.3-.72L77.26,61A.38.38,0,0,0,77,61.53Zm-2.82,1.26a.48.48,0,0,0,.38.25.27.27,0,0,0,.17,0l1.39-.63a.39.39,0,1,0-.3-.72l-1.39.64A.36.36,0,0,0,74.19,62.79ZM52.1,73.06a.22.22,0,0,0,.17,0l1.39-.63a.38.38,0,0,0,.21-.5.38.38,0,0,0-.5-.21L52,72.3a.38.38,0,0,0-.21.5A.35.35,0,0,0,52.1,73.06Zm2.82-1.27a.27.27,0,0,0,.17,0l1.39-.63a.39.39,0,1,0-.3-.71L54.8,71a.37.37,0,0,0-.21.5A.31.31,0,0,0,54.92,71.79Zm2.82-1.22a.27.27,0,0,0,.17,0l1.39-.63a.39.39,0,1,0-.3-.71l-1.38.63a.38.38,0,0,0-.22.5A.37.37,0,0,0,57.74,70.57Zm2.78-1.26a.28.28,0,0,0,.17,0l1.39-.63a.39.39,0,0,0-.3-.72l-1.39.63a.39.39,0,0,0-.21.51A.35.35,0,0,0,60.52,69.31ZM83.83,58.2l-.72-.33a.36.36,0,0,0-.5.21.38.38,0,0,0,.12.46.34.34,0,0,0-.12.46.48.48,0,0,0,.38.26.2.2,0,0,0,.16,0l.72-.33a.48.48,0,0,0,.25-.38C84.12,58.33,84,58.25,83.83,58.2Zm-2.11-1-.5-.21a34.31,34.31,0,0,0,.55-5.85A31.83,31.83,0,0,0,50,19.41a32.86,32.86,0,0,0-6.73.72l-6.82-3a.47.47,0,0,0-.33,0L27,21.18h-.13a0,0,0,0,0,0,0l0,0a0,0,0,0,1-.05,0,0,0,0,0,1,0,0v8.12a32.16,32.16,0,0,0-8.46,21.71,30.23,30.23,0,0,0,.55,5.89.43.43,0,0,0,0,.38.49.49,0,0,0,.38.25.28.28,0,0,0,.17,0L20.68,57a.39.39,0,0,0,.21-.51.43.43,0,0,0-.55-.21l-.84.38A29.89,29.89,0,0,1,19,51.18a30.9,30.9,0,0,1,7.74-20.49V60a.41.41,0,0,0,.26.38l9.13,4.08s.08,0,.12,0h0a.14.14,0,0,0,.13,0h0l4-1.81,8.63,3.87s.08,0,.12,0a.15.15,0,0,0,.13,0l9.13-4.08s.13-.08.17-.12l4.84,2.14h0a.13.13,0,0,1,.12,0h0a.13.13,0,0,0,.12,0L73,60.39a.47.47,0,0,0,.25-.38v-5.8a.52.52,0,0,0,.3-.21.38.38,0,0,0-.21-.51l-.09,0v-21s0,0,0,0a0,0,0,0,0,0,0l0,0a0,0,0,0,1,0,0h-.13l-9.05-4.13a.47.47,0,0,0-.33,0L54.42,32.2h0l-.05,0,0,0,0,0v0s0,0,0,.09V44.57l-4.76-2.14a.38.38,0,0,0-.33,0l-3.33,1.43V21.39a.14.14,0,0,0,0-.08s0,0,0-.09a0,0,0,0,1,0,0s-.05,0-.05,0h0l-1-.42A29.46,29.46,0,0,1,50,20.21a31,31,0,0,1,31,31,29.89,29.89,0,0,1-.51,5.51l-.17-.08a.38.38,0,1,0-.29.71l1.39.63a.24.24,0,0,0,.16,0,.4.4,0,0,0,.38-.25A.37.37,0,0,0,81.72,57.24ZM35.91,49.37l-.13,0a.39.39,0,0,0-.21.51.32.32,0,0,0,.29.21V63.46l-8.33-3.74V53.91a.16.16,0,0,0,.13,0l1.39-.63a.39.39,0,1,0-.3-.72l-1.22.55V22.15l7.37,3.28,1,.42V49.37Zm.37-24.19-1.34-.59-6.82-3.07,8.16-3.66,8.17,3.66ZM48.86,65.57l-8.33-3.75V47.43l8.21,3.66.17.09V65.57ZM58,61.74v.08l-8.33,3.75V51.14l.17-.09,8.08-3.62.08,0Zm14.48-8.63-.55-.25a.37.37,0,0,0-.5.21.37.37,0,0,0,.21.51l.84.37V59.8l-8.33,3.75V50.21l.46.21a.27.27,0,0,0,.17,0,.41.41,0,0,0,.38-.25.37.37,0,0,0-.21-.5l-.8-.34V36.87l1-.42,7.37-3.28ZM63.72,28.88l8.16,3.66-6.82,3-1.34.59L61.19,35,55.55,32.5ZM55,33.17l4.34,1.94,4,1.81V49.07a.38.38,0,0,0-.34.21.37.37,0,0,0,.21.51l.13,0V63.46l-4.51-2V47.85l.17.09a.27.27,0,0,0,.17,0,.41.41,0,0,0,.38-.25.38.38,0,0,0-.21-.51L58.79,47v-.29s0,0,0,0,0,0,0,0l0,0a0,0,0,0,1,0,0H58.5L54.92,45V33.17Zm-5.68,10,8.17,3.66-6.82,3-1.35.59-1.38-.55-6.82-3ZM45,22.15V44.24l-5,2.27h-.13a0,0,0,0,0,0,0l0,0s0,0-.05,0,0,0,0,0v1l-1.18.51a.38.38,0,0,0-.21.5.49.49,0,0,0,.38.26s.13,0,.17,0l.84-.37V62.12l-3.07,1.39V49.87l.84-.37a.39.39,0,0,0,.21-.51.42.42,0,0,0-.5-.21l-.51.21V25.85Z"/><path class="cls-1" d="M60.39,48.57l1.39.63a.27.27,0,0,0,.17,0,.41.41,0,0,0,.38-.25.37.37,0,0,0-.21-.5l-1.39-.64a.38.38,0,0,0-.51.21A.35.35,0,0,0,60.39,48.57ZM66,51.05l1.39.63a.2.2,0,0,0,.16,0,.41.41,0,0,0,.38-.26.36.36,0,0,0-.21-.5l-1.39-.63a.36.36,0,0,0-.5.21A.32.32,0,0,0,66,51.05Zm8.41,3.79,1.39.63a.27.27,0,0,0,.17,0,.41.41,0,0,0,.38-.25.38.38,0,0,0-.21-.51l-1.39-.63a.38.38,0,0,0-.51.21A.35.35,0,0,0,74.4,54.84Zm-5.59-2.53L70.2,53a.24.24,0,0,0,.16,0,.41.41,0,0,0,.38-.26.36.36,0,0,0-.21-.5l-1.39-.63a.36.36,0,0,0-.5.21A.32.32,0,0,0,68.81,52.31Zm8.41,3.79,1.39.63a.27.27,0,0,0,.17,0,.41.41,0,0,0,.38-.25A.37.37,0,0,0,79,56l-1.39-.63a.37.37,0,0,0-.51.21C76.93,55.76,77,56,77.22,56.1Z"/><image width="1024" height="1024" transform="translate(2 1) scale(0.09)" xlink:href="../../../../Downloads/benji.benji__thin_line_drawing_of_dishwasher_small_icon_--v_6_b9adf0cf-dc4c-4133-a81f-8769acfe61d8_2.png"/></svg>